{"title":"Selena Gomez &amp; The Scene - Love You Like A Love Song [Music ","uid":9156916,"size":101002023,"categoryP":"video","categoryS":"music_videos","magnet":"?xt=urn:btih:84fd39e3f87a9772637539f38752b7c83ff0488d&amp;dn=Selena+Gomez+%26amp%3B+The+Scene+-+Love+You+Like+A+Love+Song+%5BMusic+&amp;tr=udp%3A%2F%2Ftracker.openbittorrent.com%3A80&amp;tr=udp%3A%2F%2Fopen.demonii.com%3A1337&amp;tr=udp%3A%2F%2Ftracker.coppersurfer.tk%3A6969&amp;tr=udp%3A%2F%2Fexodus.desync.com%3A6969","seeders":3,"leechers":0,"uploader":"Sbyky","files":1,"time":1383792218,"description":"[IMG]http://cdn.piczend.com/images/MKBx9j3p/1383618638_loveyoulikealovesong.jpg[/IMG]\n\nGeneral\nComplete name                            : Selena Gomez &amp; The Scene - Love You Like A Love Song [Music Video] 1080p [Sbyky].MP4\nFormat                                   : MPEG-4\nFormat profile                           : Base Media / Version 2\nCodec ID                                 : mp42\nFile size                                : 96.3 MiB\nDuration                                 : 3mn 40s\nOverall bit rate mode                    : Variable\nOverall bit rate                         : 3 667 Kbps\nEncoded date                             : UTC 2013-09-10 07:09:18\nTagged date                              : UTC 2013-09-10 07:09:18\n\nVideo\nID                                       : 1\nFormat                                   : AVC\nFormat/Info                              : Advanced Video Codec\nFormat profile                           : &lt;a class=&quot;__cf_email__&quot; href=&quot;/cdn-cgi/l/email-protection&quot; data-cfemail=&quot;d890b1bfb09894ecf6e8&quot;&gt;[email&amp;#160;protected]&lt;/a&gt;&lt;script cf-hash='f9e31' type=&quot;text/javascript&quot;&gt;\n/* &lt;![CDATA[ */!function(){try{var t=&quot;currentScript&quot;in document?document.currentScript:function(){for(var t=document.getElementsByTagName(&quot;script&quot;),e=t.length;e--;)if(t[e].getAttribute(&quot;cf-hash&quot;))return t[e]}();if(t&amp;&amp;t.previousSibling){var e,r,n,i,c=t.previousSibling,a=c.getAttribute(&quot;data-cfemail&quot;);if(a){for(e=&quot;&quot;,r=parseInt(a.substr(0,2),16),n=2;a.length-n;n+=2)i=parseInt(a.substr(n,2),16)^r,e+=String.fromCharCode(i);e=document.createTextNode(e),c.parentNode.replaceChild(e,c)}}}catch(u){}}();/* ]]&gt; */&lt;/script&gt;\nFormat settings, CABAC                   : Yes\nFormat settings, ReFrames                : 2 frames\nCodec ID                                 : avc1\nCodec ID/Info                            : Advanced Video Coding\nDuration                                 : 3mn 40s\nSource duration                          : 3mn 40s\nBit rate                                 : 3 414 Kbps\nWidth                                    : 1 920 pixels\nHeight                                   : 1 080 pixels\nDisplay aspect ratio                     : 16:9\nFrame rate mode                          : Variable\nFrame rate                               : 23.976 fps\nMinimum frame rate                       : 23.974 fps\nMaximum frame rate                       : 2 432.432 fps\nColor space                              : YUV\nChroma subsampling                       : 4:2:0\nBit depth                                : 8 bits\nScan type                                : Progressive\nBits/(Pixel*Frame)                       : 0.069\nStream size                              : 89.6 MiB (93%)\nSource stream size                       : 89.6 MiB (93%)\nEncoded date                             : UTC 2013-09-10 07:09:18\nTagged date                              : UTC 2013-09-10 07:09:18\n\nAudio\nID                                       : 2\nFormat                                   : AAC\nFormat/Info                              : Advanced Audio Codec\nFormat profile                           : LC\nCodec ID                                 : 40\nDuration                                 : 3mn 40s\nBit rate mode                            : Variable\nBit rate                                 : 254 Kbps\nChannel(s)                               : 2 channels\nChannel positions                        : Front: L R\nSampling rate                            : 44.1 KHz\nCompression mode                         : Lossy\nStream size                              : 6.66 MiB (7%)\nEncoded date                             : UTC 2013-09-10 07:08:55\nTagged date                              : UTC 2013-09-10 07:08:55\n\nShared By Sbyky\n[IMG]http://cdn.piczend.com/images/X3Ag13N3/1379453786_saythanks.gif[/IMG]\n[IMG]http://cdn.piczend.com/images/gGqhX2S8/1379453780_keepseeding.gif[/IMG]","torrent":{"xt":"urn:btih:84fd39e3f87a9772637539f38752b7c83ff0488d","amp;dn":"Selena+Gomez+%26amp%3B+The+Scene+-+Love+You+Like+A+Love+Song+%5BMusic+","amp;tr":["udp%3A%2F%2Ftracker.openbittorrent.com%3A80","udp%3A%2F%2Fopen.demonii.com%3A1337","udp%3A%2F%2Ftracker.coppersurfer.tk%3A6969","udp%3A%2F%2Fexodus.desync.com%3A6969"],"infoHash":"84fd39e3f87a9772637539f38752b7c83ff0488d","infoHashBuffer":{"type":"Buffer","data":[132,253,57,227,248,122,151,114,99,117,57,243,135,82,183,200,63,240,72,141]},"announce":[],"urlList":[]}}